<svg width="16" height="17" viewBox="0 0 16 17" fill="none" xmlns="http://www.w3.org/2000/svg">
<path fill-rule="evenodd" clip-rule="evenodd" d="M8 16.8845C12.4183 16.8845 16 13.3028 16 8.88452C16 4.46624 12.4183 0.884521 8 0.884521C3.58172 0.884521 0 4.46624 0 8.88452C0 13.3028 3.58172 16.8845 8 16.8845ZM11.7071 7.59163C12.0976 7.2011 12.0976 6.56794 11.7071 6.17741C11.3166 5.78689 10.6834 5.78689 10.2929 6.17741L7 9.47032L5.70711 8.17741C5.31658 7.78689 4.68342 7.78689 4.29289 8.17741C3.90237 8.56794 3.90237 9.20112 4.29289 9.59162L6.29289 11.5916C6.68342 11.9821 7.31658 11.9821 7.70711 11.5916L11.7071 7.59163Z" fill="#00FFFF"/>
</svg>
