<svg width="48" height="47" viewBox="0 0 48 47" fill="none" xmlns="http://www.w3.org/2000/svg">
<path d="M47.3538 16.1252C47.3542 19.2805 46.4206 22.3654 44.6707 24.9911C42.9208 27.6168 40.4329 29.6659 37.5205 30.8801V30.8752C37.5205 25.3332 35.319 20.0183 31.4003 16.0996C27.4815 12.1808 22.1666 9.97932 16.6247 9.97932H16.6198C18.0427 6.57142 20.6017 3.76137 23.862 2.02676C27.1223 0.292141 30.8827 -0.260013 34.504 0.464137C38.1253 1.18829 41.3842 3.14406 43.7267 5.99906C46.0692 8.85406 47.3509 12.4321 47.3538 16.1252ZM11.708 1.37516C9.10005 1.37516 6.5989 2.41117 4.75479 4.25527C2.91068 6.09938 1.87467 8.60053 1.87467 11.2085V14.896H6.79134V11.2085C6.79134 9.90451 7.30935 8.65393 8.2314 7.73188C9.15345 6.80983 10.404 6.29182 11.708 6.29182H15.3955V1.37516H11.708ZM41.208 32.1043V35.7918C41.208 37.0958 40.69 38.3464 39.7679 39.2684C38.8459 40.1905 37.5953 40.7085 36.2913 40.7085H32.6038V45.6252H36.2913C38.8993 45.6252 41.4004 44.5891 43.2446 42.745C45.0887 40.9009 46.1247 38.3998 46.1247 35.7918V32.1043H41.208ZM16.6247 46.8543C20.8626 46.8543 24.927 45.1708 27.9237 42.1741C30.9203 39.1775 32.6038 35.1131 32.6038 30.8752C32.6038 26.6372 30.9203 22.5729 27.9237 19.5762C24.927 16.5795 20.8626 14.896 16.6247 14.896C12.3867 14.896 8.32237 16.5795 5.3257 19.5762C2.32902 22.5729 0.645508 26.6372 0.645508 30.8752C0.645508 35.1131 2.32902 39.1775 5.3257 42.1741C8.32237 45.1708 12.3867 46.8543 16.6247 46.8543ZM16.6247 24.7293L22.7705 30.8752L16.6247 37.021L10.4788 30.8752L16.6247 24.7293Z" fill="white"/>
</svg>
