<svg width="12" height="14" viewBox="0 0 12 14" fill="none" xmlns="http://www.w3.org/2000/svg">
<circle cx="5.83333" cy="8.16659" r="5.54167" stroke="white" stroke-opacity="0.75" stroke-width="0.583333"/>
<path d="M8.16208 9.30133C8.0563 9.84889 7.8043 10.2907 7.40608 10.6267C7.01408 10.9627 6.4883 11.1307 5.82875 11.1307C5.48653 11.1307 5.16608 11.0778 4.86741 10.972C4.57497 10.8662 4.31986 10.7138 4.10208 10.5147C3.8843 10.3156 3.71319 10.0698 3.58875 9.77733C3.4643 9.48489 3.40208 9.152 3.40208 8.77867V8.66667C3.40208 8.29333 3.4643 7.95733 3.58875 7.65867C3.71319 7.36 3.8843 7.10489 4.10208 6.89333C4.32608 6.68178 4.5843 6.52 4.87675 6.408C5.17541 6.296 5.49275 6.24 5.82875 6.24C6.47586 6.24 6.99853 6.408 7.39675 6.744C7.80119 7.08 8.0563 7.52178 8.16208 8.06933L7.00475 8.368C6.96742 8.09422 6.84919 7.85778 6.65008 7.65867C6.45097 7.45956 6.17097 7.36 5.81008 7.36C5.64208 7.36 5.48342 7.39111 5.33408 7.45333C5.18475 7.51556 5.05408 7.60578 4.94208 7.724C4.83008 7.836 4.73986 7.976 4.67141 8.144C4.60919 8.30578 4.57808 8.48933 4.57808 8.69467V8.75067C4.57808 8.956 4.60919 9.13956 4.67141 9.30133C4.73986 9.45689 4.83008 9.58756 4.94208 9.69333C5.05408 9.79911 5.18475 9.88 5.33408 9.936C5.48342 9.98578 5.64208 10.0107 5.81008 10.0107C6.17097 10.0107 6.44475 9.92044 6.63142 9.74C6.8243 9.55956 6.94875 9.31689 7.00475 9.012L8.16208 9.30133Z" fill="white" fill-opacity="0.75"/>
</svg>
