<svg width="376" height="291" viewBox="0 0 376 291" fill="none" xmlns="http://www.w3.org/2000/svg">
<g filter="url(#filter0_d_116_340)">
<path d="M314.943 23.2758C291.668 12.4258 266.468 4.55081 240.218 0.000804968C239.988 -0.00655559 239.759 0.0366359 239.547 0.127343C239.335 0.218051 239.146 0.354071 238.993 0.525809C235.843 6.30081 232.168 13.8258 229.718 19.6008C201.875 15.4008 173.56 15.4008 145.718 19.6008C143.268 13.6508 139.593 6.30081 136.268 0.525809C136.093 0.175809 135.568 0.000804968 135.043 0.000804968C108.793 4.55081 83.7679 12.4258 60.3179 23.2758C60.1429 23.2758 59.9679 23.4508 59.7929 23.6258C12.1929 94.8508 -0.932128 164.151 5.54287 232.751C5.54287 233.101 5.71787 233.451 6.06787 233.626C37.5679 256.726 67.8429 270.726 97.7679 280.001C98.2929 280.176 98.8179 280.001 98.9929 279.651C105.993 270.026 112.293 259.876 117.718 249.201C118.068 248.501 117.718 247.801 117.018 247.626C107.043 243.776 97.5929 239.226 88.3179 233.976C87.6179 233.626 87.6179 232.576 88.1429 232.051C90.0679 230.651 91.9929 229.076 93.9179 227.676C94.2679 227.326 94.7929 227.326 95.1429 227.501C155.343 254.976 220.268 254.976 279.768 227.501C280.118 227.326 280.643 227.326 280.993 227.676C282.918 229.251 284.843 230.651 286.768 232.226C287.468 232.751 287.468 233.801 286.593 234.151C277.493 239.576 267.868 243.951 257.893 247.801C257.193 247.976 257.018 248.851 257.193 249.376C262.793 260.051 269.093 270.201 275.918 279.826C276.443 280.001 276.968 280.176 277.493 280.001C307.593 270.726 337.868 256.726 369.368 233.626C369.718 233.451 369.893 233.101 369.893 232.751C377.593 153.476 357.118 84.7008 315.643 23.6258C315.468 23.4508 315.293 23.2758 314.943 23.2758ZM126.818 190.926C108.793 190.926 93.7429 174.301 93.7429 153.826C93.7429 133.351 108.443 116.726 126.818 116.726C145.368 116.726 160.068 133.526 159.893 153.826C159.893 174.301 145.193 190.926 126.818 190.926ZM248.793 190.926C230.768 190.926 215.718 174.301 215.718 153.826C215.718 133.351 230.418 116.726 248.793 116.726C267.343 116.726 282.043 133.526 281.868 153.826C281.868 174.301 267.343 190.926 248.793 190.926Z" fill="url(#paint0_linear_116_340)" shape-rendering="crispEdges"/>
</g>
<defs>
<filter id="filter0_d_116_340" x="0" y="0" width="375.49" height="290.073" filterUnits="userSpaceOnUse" color-interpolation-filters="sRGB">
<feFlood flood-opacity="0" result="BackgroundImageFix"/>
<feColorMatrix in="SourceAlpha" type="matrix" values="0 0 0 0 0 0 0 0 0 0 0 0 0 0 0 0 0 0 127 0" result="hardAlpha"/>
<feOffset dy="6"/>
<feGaussianBlur stdDeviation="2"/>
<feComposite in2="hardAlpha" operator="out"/>
<feColorMatrix type="matrix" values="0 0 0 0 1 0 0 0 0 1 0 0 0 0 1 0 0 0 0.25 0"/>
<feBlend mode="normal" in2="BackgroundImageFix" result="effect1_dropShadow_116_340"/>
<feBlend mode="normal" in="SourceGraphic" in2="effect1_dropShadow_116_340" result="shape"/>
</filter>
<linearGradient id="paint0_linear_116_340" x1="187.745" y1="0" x2="187.745" y2="280.073" gradientUnits="userSpaceOnUse">
<stop offset="0.5" stop-color="#5865F2"/>
<stop offset="1" stop-color="white" stop-opacity="0"/>
</linearGradient>
</defs>
</svg>
