<svg width="542" height="504" viewBox="0 0 542 504" fill="none" xmlns="http://www.w3.org/2000/svg">
<g filter="url(#filter0_d_533_1820)">
<path d="M489.482 273.12L173.459 272.295C173.082 294.872 152.437 303.353 142.161 304.772L142.775 430.086C166.548 433.843 173.005 452.352 173.262 461.137L491.397 461.214C493.366 438.835 512.918 431.565 522.449 430.727L522.082 303.423C496.618 300.265 489.739 281.905 489.482 273.12Z" fill="url(#paint0_linear_533_1820)"/>
</g>
<path d="M463.697 300.543L463.693 430.831" stroke="#090719" stroke-opacity="0.45" stroke-width="3.16146" stroke-linecap="round" stroke-dasharray="16.86 16.86"/>
<path d="M202.024 303.342L202.021 433.629" stroke="#090719" stroke-opacity="0.45" stroke-width="3.16146" stroke-linecap="round" stroke-dasharray="16.86 16.86"/>
<path d="M283.886 294.277L287.275 294.241C287.452 294.239 287.554 294.314 287.632 294.566L291.875 308.128C291.902 308.28 291.978 308.304 292.079 308.303L292.205 308.302C292.307 308.301 292.357 308.275 292.406 308.122L296.37 295.611C296.737 294.468 297.315 294.133 298.225 294.124L300.729 294.097C301.842 294.085 302.377 294.484 302.743 295.542L307.074 307.966C307.126 308.117 307.177 308.142 307.278 308.14L307.43 308.139C307.531 308.138 307.582 308.112 307.631 307.96L311.481 294.311C311.554 294.032 311.705 293.98 311.882 293.978L315.296 293.941C315.574 293.938 315.603 294.216 315.505 294.521L310.812 309.772C310.347 311.295 309.846 311.705 308.885 311.715L305.926 311.747C304.94 311.757 304.48 311.332 303.958 309.845L299.859 297.875C299.832 297.749 299.781 297.699 299.655 297.7L299.554 297.701C299.452 297.702 299.377 297.754 299.353 297.88L295.46 309.936C294.971 311.434 294.52 311.868 293.534 311.879L290.651 311.91C289.513 311.922 289.003 311.573 288.506 310.011L283.69 294.861C283.585 294.533 283.608 294.28 283.886 294.277ZM319.301 297.718L321.779 297.691C322.159 297.687 322.338 297.887 322.342 298.267L322.478 311.013C322.482 311.392 322.307 311.571 321.928 311.575L319.449 311.602C319.07 311.606 318.891 311.431 318.887 311.051L318.751 298.305C318.747 297.926 318.922 297.722 319.301 297.718ZM319.246 292.584L321.725 292.557C322.104 292.553 322.283 292.728 322.287 293.108L322.313 295.51C322.317 295.89 322.142 296.094 321.762 296.098L319.284 296.124C318.905 296.128 318.7 295.928 318.696 295.549L318.67 293.146C318.666 292.767 318.867 292.588 319.246 292.584ZM332.491 297.577L339.749 297.499C344.301 297.45 345.784 298.901 345.823 302.568L345.911 310.762C345.915 311.142 345.739 311.321 345.36 311.325L342.882 311.351C342.502 311.355 342.323 311.18 342.319 310.801L342.241 303.467C342.218 301.342 341.781 300.689 339.606 300.713L332.879 300.785C330.704 300.808 330.129 301.472 330.152 303.596L330.231 310.93C330.235 311.31 330.06 311.488 329.68 311.492L327.202 311.519C326.822 311.523 326.618 311.348 326.614 310.969L326.526 302.775C326.487 299.108 327.938 297.625 332.491 297.577ZM359.697 297.286L370.622 297.169C375.174 297.12 376.657 298.571 376.696 302.238L376.768 308.965C376.785 310.609 376.385 310.993 374.918 311.009L362.88 311.137C359.896 311.169 358.974 310.092 358.947 307.588L358.934 306.374C358.911 304.25 359.809 303.051 362.793 303.019L373.086 302.909L373.081 302.429C373.064 300.81 372.501 300.184 370.3 300.207L359.729 300.32C359.426 300.324 359.272 300.199 359.269 299.87L359.246 297.746C359.243 297.442 359.393 297.289 359.697 297.286ZM372.41 308.253C372.941 308.248 373.141 308.018 373.134 307.386L373.11 305.16L363.854 305.259C362.817 305.27 362.442 305.704 362.451 306.513L362.457 307.044C362.466 307.955 362.85 308.356 363.887 308.344L372.41 308.253Z" fill="white"/>
<path d="M246.371 352.856L248.764 352.83C249.388 352.823 249.703 353.132 249.71 353.756L249.751 357.657L263.794 357.507C264.418 357.5 264.734 357.861 264.741 358.537L264.788 362.854C264.795 363.53 264.487 363.898 263.863 363.904L249.82 364.054L249.893 370.92L258.059 370.832C263.728 370.772 266.15 373.503 266.207 378.808L266.241 382.032C266.293 386.869 264.3 390.22 258.215 390.285L250.101 390.371L250.146 394.532C250.152 395.156 249.844 395.472 249.22 395.478L246.827 395.504C246.203 395.511 245.888 395.202 245.881 394.578L245.836 390.417L230.65 390.579C230.025 390.586 229.657 390.226 229.65 389.55L229.604 385.233C229.597 384.557 229.957 384.189 230.581 384.182L245.768 384.02L245.686 376.322L237.624 376.409C232.007 376.469 229.482 373.791 229.425 368.538L229.398 365.989C229.347 361.204 231.392 357.853 237.425 357.789L245.487 357.703L245.445 353.802C245.438 353.178 245.747 352.862 246.371 352.856ZM256.036 376.212L249.951 376.277L250.033 383.974L256.118 383.909C258.094 383.888 258.863 382.787 258.844 381.019L258.822 378.991C258.803 377.17 257.96 376.191 256.036 376.212ZM236.862 368.406C236.881 370.175 237.723 371.05 239.647 371.029L245.628 370.965L245.555 364.1L239.574 364.164C237.545 364.186 236.829 365.286 236.847 367.002L236.862 368.406ZM273.055 355.691L279.972 355.617C283.405 355.581 284.772 356.97 284.804 359.987L285.134 390.829C285.142 391.609 284.782 391.977 284.002 391.986L278.645 392.043C277.865 392.051 277.497 391.691 277.489 390.911L277.197 363.658C277.189 362.929 276.873 362.569 276.093 362.577L273.129 362.609C272.349 362.617 271.929 362.257 271.92 361.477L271.871 356.848C271.862 356.068 272.275 355.7 273.055 355.691ZM307.896 355.319L319.91 355.19C330.416 355.078 334.513 358.779 334.62 368.765L334.716 377.711C334.822 387.697 330.806 391.485 320.3 391.597L308.285 391.726C297.779 391.838 293.682 388.137 293.576 378.151L293.48 369.205C293.373 359.219 297.39 355.431 307.896 355.319ZM301.181 369.435L301.27 377.757C301.329 383.27 302.854 384.866 308.211 384.809L320.226 384.68C325.583 384.623 327.074 382.994 327.015 377.481L326.926 369.16C326.867 363.647 325.341 362.05 319.984 362.108L307.97 362.236C302.613 362.293 301.122 363.922 301.181 369.435ZM357.161 354.792L369.176 354.663C379.682 354.551 383.778 358.252 383.885 368.238L383.981 377.184C384.088 387.17 380.071 390.958 369.565 391.071L357.551 391.199C347.044 391.311 342.948 387.61 342.841 377.624L342.745 368.678C342.638 358.692 346.655 354.904 357.161 354.792ZM350.446 368.908L350.535 377.23C350.594 382.743 352.12 384.339 357.477 384.282L369.491 384.153C374.848 384.096 376.339 382.467 376.28 376.954L376.191 368.633C376.132 363.12 374.607 361.524 369.25 361.581L357.235 361.709C351.878 361.767 350.387 363.395 350.446 368.908ZM406.427 354.265L418.441 354.137C428.947 354.024 433.044 357.726 433.151 367.712L433.246 376.657C433.353 386.643 429.336 390.431 418.83 390.544L406.816 390.672C396.31 390.785 392.213 387.083 392.106 377.097L392.011 368.151C391.904 358.166 395.921 354.377 406.427 354.265ZM399.711 368.381L399.8 376.703C399.859 382.216 401.385 383.812 406.742 383.755L418.756 383.626C424.113 383.569 425.604 381.941 425.545 376.428L425.456 368.106C425.397 362.593 423.872 360.997 418.515 361.054L406.501 361.182C401.144 361.24 399.652 362.868 399.711 368.381Z" fill="#00FFFF"/>
<path d="M248.127 432.115L250.032 432.094C250.251 432.092 250.37 432.192 250.422 432.36L252.672 439.266C252.706 439.35 252.757 439.383 252.841 439.382L252.909 439.382C253.01 439.381 253.06 439.346 253.076 439.262L255.284 432.848C255.497 432.238 255.747 432.033 256.354 432.027L258.361 432.005C258.968 431.999 259.223 432.198 259.448 432.803L261.776 439.169C261.794 439.253 261.845 439.286 261.946 439.285L262.013 439.284C262.098 439.283 262.148 439.249 262.181 439.165L264.298 432.212C264.33 432.043 264.447 431.94 264.683 431.938L266.588 431.917C266.875 431.914 266.944 432.082 266.879 432.319L264.4 440.153C264.139 440.998 263.821 441.204 263.113 441.212L260.989 441.234C260.399 441.241 260.143 440.991 259.848 440.201L257.557 434.071C257.539 434.004 257.488 433.971 257.404 433.972L257.303 433.973C257.218 433.973 257.168 434.008 257.152 434.075L255.009 440.253C254.731 441.048 254.481 441.304 253.891 441.31L251.766 441.333C251.058 441.341 250.736 441.142 250.457 440.302L247.844 432.522C247.774 432.287 247.823 432.118 248.127 432.115ZM272.497 431.854L277.268 431.803C280.303 431.771 281.292 432.738 281.318 435.183L281.344 437.611C281.37 440.055 280.402 441.027 277.367 441.059L272.596 441.11C269.561 441.143 268.573 440.192 268.547 437.747L268.521 435.32C268.495 432.875 269.462 431.887 272.497 431.854ZM270.936 435.698L270.953 437.3C270.968 438.716 271.361 439.151 272.811 439.135L277.11 439.089C278.577 439.073 278.96 438.631 278.945 437.215L278.928 435.613C278.913 434.197 278.52 433.779 277.054 433.795L272.754 433.841C271.304 433.857 270.921 434.282 270.936 435.698ZM287.91 431.689L292.631 431.639C292.833 431.637 292.935 431.737 292.937 431.939L292.953 433.355C292.955 433.574 292.855 433.66 292.652 433.662L288.168 433.71C286.718 433.725 286.334 434.168 286.35 435.584L286.403 440.592C286.406 440.845 286.289 440.964 286.036 440.967L284.384 440.984C284.131 440.987 283.995 440.87 283.992 440.617L283.934 435.155C283.908 432.71 284.875 431.722 287.91 431.689ZM294.819 431.615L296.421 431.598L296.397 429.373C296.395 429.12 296.528 429 296.764 428.998L298.433 428.98C298.669 428.977 298.806 429.094 298.808 429.347L298.832 431.572L301.783 431.541C302.002 431.539 302.087 431.639 302.089 431.841L302.104 433.224C302.106 433.426 302.023 433.528 301.804 433.53L298.853 433.562L298.895 437.474C298.905 438.401 299.213 438.836 300.326 438.824L301.961 438.807C302.181 438.804 302.266 438.904 302.268 439.107L302.283 440.489C302.285 440.692 302.202 440.794 301.983 440.796L299.943 440.818C297.245 440.847 296.51 439.893 296.484 437.499L296.442 433.588L294.841 433.605C294.638 433.607 294.536 433.507 294.534 433.305L294.519 431.922C294.517 431.72 294.617 431.618 294.819 431.615ZM304.583 428.122L306.235 428.104C306.488 428.101 306.607 428.218 306.61 428.471L306.642 431.489L312.948 431.422C315.983 431.389 316.971 432.356 316.997 434.801L317.056 440.264C317.058 440.517 316.942 440.636 316.689 440.639L315.036 440.656C314.784 440.659 314.664 440.542 314.662 440.29L314.609 435.4C314.594 433.984 314.303 433.549 312.853 433.564L306.665 433.63L306.737 440.374C306.74 440.627 306.623 440.746 306.37 440.749L304.718 440.767C304.465 440.77 304.346 440.653 304.343 440.4L304.216 428.497C304.213 428.244 304.33 428.124 304.583 428.122ZM329.907 431.24L334.678 431.189C337.713 431.157 338.702 432.124 338.728 434.569L338.754 436.997C338.78 439.441 337.812 440.413 334.777 440.445L330.006 440.496C326.971 440.529 325.983 439.578 325.957 437.134L325.931 434.706C325.905 432.261 326.872 431.273 329.907 431.24ZM328.346 435.085L328.363 436.686C328.379 438.103 328.771 438.537 330.221 438.521L334.52 438.475C335.987 438.46 336.37 438.017 336.355 436.601L336.338 434.999C336.323 433.583 335.931 433.165 334.464 433.181L330.164 433.227C328.714 433.243 328.331 433.668 328.346 435.085ZM340.886 431.123L342.504 431.105L342.501 430.751C342.475 428.374 343.173 427.389 345.87 427.36L347.911 427.338C348.13 427.336 348.215 427.436 348.217 427.638L348.232 429.021C348.234 429.223 348.151 429.325 347.932 429.327L346.296 429.345C345.2 429.357 344.885 429.798 344.895 430.726L344.898 431.08L347.849 431.048C348.068 431.046 348.154 431.146 348.156 431.349L348.171 432.731C348.173 432.933 348.089 433.035 347.87 433.038L344.92 433.069L344.994 439.965C344.996 440.218 344.879 440.337 344.627 440.34L342.974 440.358C342.721 440.36 342.602 440.244 342.599 439.991L342.526 433.095L340.907 433.112C340.705 433.114 340.602 433.014 340.6 432.812L340.586 431.429C340.583 431.227 340.683 431.125 340.886 431.123ZM357.007 430.95L358.66 430.933C358.913 430.93 359.032 431.064 359.035 431.316L359.126 439.814C359.128 440.067 359.012 440.186 358.759 440.189L357.106 440.207C356.853 440.209 356.734 440.093 356.731 439.84L356.641 431.342C356.638 431.089 356.754 430.953 357.007 430.95ZM356.971 427.528L358.623 427.51C358.876 427.507 358.995 427.624 358.998 427.877L359.015 429.479C359.018 429.732 358.901 429.868 358.648 429.87L356.996 429.888C356.743 429.891 356.607 429.757 356.604 429.505L356.587 427.903C356.584 427.65 356.718 427.53 356.971 427.528ZM361.366 430.904L362.968 430.887L362.944 428.661C362.941 428.408 363.075 428.289 363.311 428.286L364.98 428.268C365.216 428.266 365.352 428.382 365.355 428.635L365.379 430.861L368.33 430.829C368.549 430.827 368.634 430.927 368.636 431.129L368.651 432.512C368.653 432.714 368.57 432.816 368.351 432.819L365.4 432.85L365.442 436.762C365.452 437.689 365.76 438.124 366.873 438.112L368.508 438.095C368.728 438.093 368.813 438.193 368.815 438.395L368.83 439.778C368.832 439.98 368.749 440.082 368.53 440.084L366.49 440.106C363.792 440.135 363.057 439.182 363.031 436.788L362.989 432.876L361.388 432.893C361.185 432.895 361.083 432.795 361.081 432.593L361.066 431.21C361.064 431.008 361.164 430.906 361.366 430.904ZM374.42 430.764L379.36 430.711C381.67 430.687 382.285 431.405 382.306 433.445L382.324 435.047C382.331 435.772 382.03 436.011 381.373 436.018L372.858 436.109L372.863 436.514C372.874 437.576 373.267 438.01 374.733 437.995L381.764 437.919C381.966 437.917 382.069 438.017 382.071 438.22L382.086 439.636C382.088 439.838 381.988 439.94 381.786 439.943L374.519 440.02C371.484 440.053 370.496 439.102 370.47 436.658L370.444 434.23C370.418 431.785 371.385 430.797 374.42 430.764ZM372.837 434.153L372.842 434.609L379.671 434.536C379.873 434.534 379.957 434.465 379.954 434.246L379.947 433.538C379.939 432.847 379.683 432.58 378.908 432.588L374.676 432.633C373.209 432.649 372.826 433.074 372.837 434.153ZM388.718 430.611L397.334 430.519C400.369 430.487 401.34 431.454 401.366 433.899L401.425 439.362C401.428 439.615 401.311 439.734 401.058 439.737L399.406 439.754C399.153 439.757 399.033 439.64 399.031 439.387L398.978 434.498C398.963 433.082 398.689 432.646 397.222 432.662L394.255 432.694L394.327 439.438C394.329 439.69 394.196 439.81 393.943 439.813L392.291 439.83C392.038 439.833 391.918 439.716 391.916 439.463L391.844 432.719L388.977 432.75C387.527 432.765 387.144 433.208 387.159 434.624L387.212 439.514C387.214 439.767 387.098 439.886 386.845 439.889L385.192 439.906C384.94 439.909 384.803 439.792 384.801 439.539L384.742 434.077C384.716 431.632 385.684 430.644 388.718 430.611ZM406.547 430.421L414.774 430.333C414.977 430.33 415.079 430.43 415.081 430.633L415.096 431.982C415.098 432.184 414.998 432.286 414.795 432.288L407.191 432.37C406.5 432.377 406.267 432.649 406.272 433.138L406.275 433.391C406.28 433.846 406.519 434.114 407.21 434.106L412.892 434.046C414.78 434.025 415.531 434.827 415.546 436.277L415.556 437.221C415.572 438.705 414.924 439.588 412.935 439.61L404.302 439.702C404.1 439.704 403.998 439.604 403.995 439.402L403.981 438.053C403.979 437.85 404.079 437.748 404.281 437.746L412.273 437.661C412.964 437.653 413.215 437.414 413.208 436.841L413.204 436.386C413.199 435.948 412.943 435.681 412.252 435.688L406.587 435.749C404.699 435.769 403.948 434.984 403.932 433.501L403.924 432.759C403.909 431.359 404.557 430.442 406.547 430.421Z" fill="url(#paint1_linear_533_1820)"/>
<g filter="url(#filter1_d_533_1820)">
<path d="M359.457 61.5474L63.5992 172.628C71.2376 193.877 54.93 209.117 45.8214 214.08L90.749 331.065C114.313 326.165 126.904 341.191 130.253 349.316L427.822 236.788C421.742 215.161 437.456 201.441 446.073 197.284L400.672 78.3511C375.739 84.4093 362.807 69.6728 359.457 61.5474Z" fill="url(#paint2_linear_533_1820)"/>
</g>
<path d="M345.047 96.3218L391.158 218.177" stroke="#090719" stroke-opacity="0.45" stroke-width="3.16146" stroke-linecap="round" stroke-dasharray="16.86 16.86"/>
<path d="M101.304 191.555L147.414 313.41" stroke="#090719" stroke-opacity="0.45" stroke-width="3.16146" stroke-linecap="round" stroke-dasharray="16.86 16.86"/>
<path d="M196.579 145.538L199.123 144.544C199.476 144.406 199.706 144.507 199.844 144.86L203.654 154.613C205.421 159.136 204.27 161.541 199.488 163.409L190.301 166.999C189.947 167.137 189.694 167.046 189.556 166.692L188.654 164.384C188.516 164.03 188.64 163.792 188.994 163.654L198.063 160.11C200.49 159.162 200.888 158.165 199.912 155.668L196.239 146.268C196.101 145.915 196.225 145.676 196.579 145.538ZM210.389 144.243L217.056 141.638C221.296 139.981 223.197 140.814 224.531 144.23L225.857 147.622C227.191 151.038 226.349 152.914 222.109 154.571L215.442 157.176C211.202 158.832 209.311 158.024 207.976 154.608L206.651 151.215C205.316 147.8 206.149 145.899 210.389 144.243ZM210.241 150.465L211.115 152.703C211.888 154.681 212.669 155.082 214.695 154.291L220.702 151.944C222.752 151.143 223.054 150.319 222.281 148.34L221.407 146.102C220.634 144.123 219.862 143.746 217.812 144.547L211.805 146.894C209.779 147.685 209.468 148.486 210.241 150.465ZM226.93 137.78L229.239 136.878C229.592 136.74 229.831 136.864 229.969 137.217L234.608 149.09C234.746 149.444 234.646 149.673 234.292 149.811L231.984 150.713C231.63 150.851 231.401 150.751 231.263 150.397L226.624 138.524C226.486 138.171 226.577 137.918 226.93 137.78ZM225.062 132.998L227.371 132.096C227.724 131.958 227.953 132.058 228.091 132.412L228.966 134.649C229.104 135.003 229.013 135.256 228.659 135.394L226.351 136.296C225.997 136.434 225.735 136.319 225.597 135.966L224.723 133.728C224.585 133.374 224.709 133.136 225.062 132.998ZM239.216 132.98L245.977 130.338C250.218 128.681 252.118 129.514 253.453 132.93L256.435 140.562C256.573 140.916 256.472 141.145 256.119 141.283L253.81 142.185C253.457 142.323 253.228 142.223 253.089 141.869L250.42 135.038C249.647 133.059 249.007 132.603 246.981 133.394L240.715 135.843C238.689 136.634 238.387 137.458 239.16 139.437L241.829 146.269C241.967 146.622 241.867 146.852 241.513 146.99L239.205 147.892C238.851 148.03 238.598 147.938 238.46 147.585L235.478 139.952C234.144 136.537 234.976 134.636 239.216 132.98Z" fill="white"/>
<path d="M143.536 228.866L163.11 221.218C168.687 219.039 171.958 220.744 173.881 225.665L174.692 227.743C176.316 231.898 175.666 234.967 172.11 237.155L181.362 242.447C181.68 242.617 181.9 243.287 181.244 243.543L176.542 245.381C175.922 245.623 175.683 245.548 175.336 245.305L166.615 239.974L154.841 244.574L157.675 251.827C157.889 252.374 157.734 252.729 157.187 252.943L153.25 254.481C152.703 254.694 152.312 254.553 152.099 254.006L142.87 230.387C142.585 229.658 142.807 229.151 143.536 228.866ZM150.142 232.545L153.104 240.127L167.064 234.673C169.543 233.704 170.041 232.291 169.187 230.104L168.589 228.573C167.734 226.386 166.41 225.685 163.931 226.653L150.445 231.923C150.117 232.051 150.028 232.254 150.142 232.545ZM190.932 210.348L193.082 209.508C194.941 208.782 196.299 208.923 198.356 210.64L218.98 227.833C219.421 228.207 219.454 228.614 218.87 228.842L214.241 230.651C213.767 230.836 213.542 230.798 213.218 230.505L208.793 226.814L191.661 233.507L190.983 239.192C190.943 239.628 190.767 239.822 190.33 239.993L185.591 241.845C184.972 242.087 184.72 241.765 184.79 241.192L188.187 214.614C188.535 211.957 189.401 210.946 190.932 210.348ZM193.855 215.466L192.305 228.382L204.844 223.483L194.876 215.067C194.695 214.928 194.558 214.898 194.375 214.969L194.157 215.054C193.974 215.125 193.894 215.241 193.855 215.466ZM223.795 197.508L239.833 191.242C240.38 191.028 240.771 191.169 240.985 191.716L242.338 195.179C242.552 195.726 242.36 196.095 241.813 196.308L225.994 202.489C222.239 203.956 221.587 205.513 223.083 209.34L223.367 210.069L243.852 202.066C244.399 201.852 244.754 202.008 244.968 202.554L246.093 205.434C246.306 205.981 246.151 206.336 245.604 206.549L225.119 214.553L228.822 224.03C229.035 224.577 228.88 224.931 228.333 225.145L224.397 226.683C223.85 226.897 223.459 226.756 223.245 226.209L217.349 211.118C214.615 204.12 216.432 200.385 223.795 197.508ZM255.652 185.061L271.69 178.795C272.237 178.581 272.628 178.723 272.842 179.269L274.195 182.732C274.409 183.279 274.217 183.648 273.67 183.862L257.851 190.042C254.096 191.509 253.444 193.066 254.939 196.894L255.224 197.623L275.709 189.619C276.256 189.405 276.611 189.561 276.825 190.108L277.95 192.987C278.163 193.534 278.008 193.889 277.461 194.102L256.976 202.106L260.679 211.583C260.892 212.13 260.737 212.485 260.19 212.698L256.254 214.236C255.707 214.45 255.316 214.309 255.102 213.762L249.206 198.672C246.472 191.673 248.289 187.938 255.652 185.061ZM278.36 176.189L282.297 174.651C282.843 174.437 283.198 174.593 283.412 175.14L289.094 189.683C290.604 193.547 292.139 194.25 295.893 192.783L310.656 187.015C311.202 186.801 311.557 186.957 311.771 187.504L313.166 191.076C313.38 191.622 313.225 191.977 312.678 192.191L297.697 198.044C290.334 200.921 286.465 199.407 283.731 192.409L277.835 177.318C277.621 176.772 277.813 176.403 278.36 176.189ZM318.156 160.641L334.194 154.374C334.741 154.161 335.132 154.302 335.345 154.849L336.698 158.311C336.912 158.858 336.72 159.227 336.173 159.441L320.245 165.664C316.454 167.145 315.838 168.688 317.334 172.516L317.476 172.88L338.07 164.834C338.617 164.62 338.972 164.776 339.186 165.322L340.311 168.202C340.524 168.749 340.369 169.104 339.822 169.317L319.228 177.364L319.47 177.983C320.965 181.81 322.464 182.527 326.255 181.046L342.183 174.823C342.73 174.609 343.121 174.75 343.335 175.297L344.688 178.76C344.901 179.307 344.71 179.676 344.163 179.889L328.125 186.156C320.762 189.032 316.893 187.519 314.159 180.52L311.709 174.251C308.975 167.253 310.793 163.517 318.156 160.641Z" fill="#00FFFF"/>
<path d="M216.89 269.292L220.899 267.726C224.405 266.356 226.248 267.077 227.55 270.409L228.716 273.395C230.018 276.727 229.153 278.506 225.646 279.876L221.637 281.442C218.131 282.812 216.289 282.091 214.987 278.759L213.82 275.773C212.518 272.441 213.384 270.662 216.89 269.292ZM216.43 274.874L217.515 277.651C218.234 279.491 218.947 279.832 220.735 279.134L224.744 277.567C226.532 276.869 226.825 276.134 226.107 274.294L225.022 271.517C224.303 269.677 223.589 269.336 221.801 270.034L217.792 271.601C216.004 272.299 215.711 273.034 216.43 274.874ZM233.331 262.868L237.341 261.302C240.847 259.932 242.689 260.653 243.991 263.985L245.157 266.971C246.459 270.303 245.594 272.082 242.088 273.452L238.078 275.019C234.572 276.388 232.73 275.668 231.428 272.335L230.261 269.35C228.959 266.017 229.825 264.238 233.331 262.868ZM232.871 268.45L233.956 271.227C234.675 273.067 235.388 273.409 237.176 272.71L241.186 271.143C242.974 270.445 243.267 269.71 242.548 267.87L241.463 265.093C240.744 263.253 240.03 262.912 238.242 263.61L234.233 265.177C232.445 265.876 232.152 266.61 232.871 268.45ZM244.534 258.491L246.843 257.589C247.989 257.142 248.623 257.434 249.016 258.441L253.038 268.734C253.139 268.994 253.065 269.163 252.805 269.265L251.017 269.963C250.757 270.065 250.588 269.991 250.486 269.73L246.933 260.635C246.838 260.392 246.686 260.311 246.426 260.413L245.436 260.8C245.176 260.901 244.99 260.834 244.888 260.574L244.284 259.029C244.183 258.769 244.274 258.593 244.534 258.491ZM252.083 255.542L261.282 251.948C263.382 251.127 264.802 251.893 265.46 253.577L265.935 254.792C266.674 256.683 266.053 258.167 264.057 258.946L257.461 261.523C256.836 261.768 256.687 262.206 256.945 262.865L257.521 264.341C257.616 264.584 257.768 264.665 258.011 264.57L267.783 260.752C268.043 260.65 268.23 260.717 268.332 260.978L268.935 262.522C269.037 262.783 268.945 262.958 268.685 263.06L257.611 267.387C256.448 267.841 255.814 267.549 255.42 266.542L254.376 263.869C253.63 261.96 254.251 260.477 256.247 259.697L262.843 257.12C263.468 256.876 263.617 256.437 263.366 255.795L263.074 255.049C262.837 254.441 262.427 254.161 261.768 254.419L252.985 257.85C252.725 257.952 252.556 257.878 252.454 257.618L251.85 256.073C251.749 255.813 251.823 255.644 252.083 255.542ZM268.542 249.111L279.2 244.947C279.46 244.845 279.629 244.919 279.731 245.18L280.334 246.725C280.436 246.985 280.362 247.154 280.102 247.256L270.746 250.911C270.503 251.006 270.447 251.168 270.541 251.411L271.315 253.39C271.41 253.633 271.561 253.714 271.804 253.619L278.955 250.825C280.951 250.045 282.413 250.714 283.152 252.606L283.675 253.942C284.332 255.626 283.808 257.151 281.708 257.972L272.092 261.729C271.832 261.831 271.645 261.764 271.544 261.503L270.94 259.958C270.838 259.698 270.93 259.522 271.19 259.421L280.389 255.826C281.049 255.569 281.16 255.085 280.923 254.477L280.584 253.61C280.333 252.967 279.926 252.746 279.301 252.99L271.282 256.123C270.119 256.578 269.492 256.303 269.092 255.279L267.505 251.217C267.111 250.21 267.38 249.565 268.542 249.111ZM285.413 242.519L290.343 240.593C293.849 239.224 295.691 239.944 296.993 243.277L298.16 246.262C299.462 249.595 298.596 251.374 295.09 252.743L287.644 255.653C287.383 255.755 287.214 255.68 287.113 255.42L286.509 253.875C286.407 253.615 286.481 253.446 286.742 253.344L294.188 250.435C295.976 249.736 296.269 249.002 295.55 247.162L295.401 246.78L288.059 249.649C285.907 250.49 284.499 249.959 283.766 248.085L283.319 246.939C282.498 244.839 283.157 243.401 285.413 242.519ZM286.219 246.886C286.497 247.598 286.931 247.889 287.66 247.604L294.655 244.871L294.431 244.298C293.719 242.475 293.005 242.134 291.218 242.833L286.514 244.67C285.802 244.948 285.636 245.393 285.914 246.105L286.219 246.886ZM302.773 235.737L306.783 234.17C310.289 232.8 312.131 233.521 313.433 236.854L314.6 239.839C315.902 243.172 315.036 244.95 311.53 246.32L307.521 247.887C304.014 249.257 302.172 248.536 300.87 245.203L299.704 242.218C298.402 238.885 299.267 237.107 302.773 235.737ZM302.313 241.318L303.398 244.095C304.117 245.935 304.831 246.277 306.619 245.578L310.628 244.012C312.416 243.313 312.709 242.578 311.99 240.739L310.905 237.961C310.186 236.122 309.473 235.78 307.685 236.479L303.675 238.045C301.888 238.744 301.595 239.478 302.313 241.318Z" fill="url(#paint3_linear_533_1820)"/>
<path d="M525.019 448.513L525.436 456.465L525.471 457.141L526.125 457.317L533.818 459.378L526.383 462.232L525.751 462.474L525.786 463.15L526.203 471.103L521.191 464.914L520.765 464.388L520.133 464.631L512.699 467.485L517.036 460.806L517.405 460.238L516.979 459.712L511.967 453.523L519.659 455.584L520.313 455.759L520.682 455.192L525.019 448.513Z" stroke="#0100FF" stroke-width="1.8635"/>
<path d="M169.917 57.4085L170.642 71.2338L170.677 71.9098L171.331 72.085L184.704 75.6682L171.779 80.6295L171.147 80.8721L171.182 81.5481L171.907 95.3734L163.194 84.6144L162.768 84.0883L162.136 84.3309L149.212 89.2922L156.752 77.6815L157.12 77.1137L156.694 76.5877L147.982 65.8287L161.354 69.4118L162.008 69.587L162.377 69.0193L169.917 57.4085Z" stroke="#FF00FF" stroke-width="1.8635"/>
<path d="M495.816 223.251L496.57 237.631L510.479 241.358L497.036 246.518L497.789 260.898L488.727 249.708L475.284 254.868L483.126 242.791L474.064 231.601L487.973 235.328L495.816 223.251Z" fill="#7777FF"/>
<path d="M108.134 350.823L98.4992 361.524L105.699 373.994L92.5442 368.138L82.9089 378.839L84.4141 364.518L71.2592 358.661L85.3443 355.667L86.8495 341.346L94.0494 353.817L108.134 350.823Z" fill="#FF00FF"/>
<path d="M529.942 258.022L530.328 265.396L537.461 267.307L530.567 269.954L530.954 277.328L526.307 271.589L519.413 274.235L523.435 268.042L518.788 262.304L525.92 264.215L529.942 258.022Z" fill="#0083FF"/>
<path d="M108.791 384.74L109.037 389.449L113.592 390.669L109.19 392.359L109.437 397.068L106.469 393.403L102.067 395.093L104.635 391.139L101.668 387.474L106.222 388.695L108.791 384.74Z" fill="#7777FF"/>
<path d="M479.627 190.936L480.014 198.31L487.146 200.221L480.253 202.867L480.639 210.241L475.992 204.503L469.098 207.149L473.12 200.956L468.473 195.217L475.606 197.129L479.627 190.936Z" fill="#0083FF"/>
<path d="M99.793 407.484L100.235 415.926L108.401 418.114L100.509 421.143L100.951 429.585L95.6313 423.015L87.7392 426.045L92.3434 418.955L87.0234 412.385L95.1889 414.573L99.793 407.484Z" fill="#0001FF"/>
<defs>
<filter id="filter0_d_533_1820" x="134.707" y="267.636" width="395.196" height="203.827" filterUnits="userSpaceOnUse" color-interpolation-filters="sRGB">
<feFlood flood-opacity="0" result="BackgroundImageFix"/>
<feColorMatrix in="SourceAlpha" type="matrix" values="0 0 0 0 0 0 0 0 0 0 0 0 0 0 0 0 0 0 127 0" result="hardAlpha"/>
<feOffset dy="2.79525"/>
<feGaussianBlur stdDeviation="3.727"/>
<feComposite in2="hardAlpha" operator="out"/>
<feColorMatrix type="matrix" values="0 0 0 0 0 0 0 0 0 0.0784314 0 0 0 0 1 0 0 0 1 0"/>
<feBlend mode="normal" in2="BackgroundImageFix" result="effect1_dropShadow_533_1820"/>
<feBlend mode="normal" in="SourceGraphic" in2="effect1_dropShadow_533_1820" result="shape"/>
</filter>
<filter id="filter1_d_533_1820" x="38.9299" y="57.2402" width="414.035" height="301.552" filterUnits="userSpaceOnUse" color-interpolation-filters="sRGB">
<feFlood flood-opacity="0" result="BackgroundImageFix"/>
<feColorMatrix in="SourceAlpha" type="matrix" values="0 0 0 0 0 0 0 0 0 0 0 0 0 0 0 0 0 0 127 0" result="hardAlpha"/>
<feOffset dy="2.58431"/>
<feGaussianBlur stdDeviation="3.44575"/>
<feComposite in2="hardAlpha" operator="out"/>
<feColorMatrix type="matrix" values="0 0 0 0 0.992157 0 0 0 0 0.00392157 0 0 0 0 1 0 0 0 1 0"/>
<feBlend mode="normal" in2="BackgroundImageFix" result="effect1_dropShadow_533_1820"/>
<feBlend mode="normal" in="SourceGraphic" in2="effect1_dropShadow_533_1820" result="shape"/>
</filter>
<linearGradient id="paint0_linear_533_1820" x1="-192.642" y1="91.5854" x2="895.045" y2="370.867" gradientUnits="userSpaceOnUse">
<stop stop-color="#0000FF"/>
<stop offset="0.500171" stop-color="#FF00FF"/>
<stop offset="1" stop-color="#00FFFF"/>
</linearGradient>
<linearGradient id="paint1_linear_533_1820" x1="252.42" y1="432.762" x2="630.98" y2="271.755" gradientUnits="userSpaceOnUse">
<stop stop-color="white"/>
<stop offset="0.984375" stop-color="#00FFFF"/>
</linearGradient>
<linearGradient id="paint2_linear_533_1820" x1="-26.7355" y1="148.805" x2="572.173" y2="141.193" gradientUnits="userSpaceOnUse">
<stop stop-color="#FF00FF"/>
<stop offset="0.489583" stop-color="#0000FF"/>
<stop offset="1" stop-color="#00FFFF"/>
</linearGradient>
<linearGradient id="paint3_linear_533_1820" x1="189.013" y1="285.826" x2="475.953" y2="-6.69615" gradientUnits="userSpaceOnUse">
<stop stop-color="white"/>
<stop offset="0.984375" stop-color="#00FFFF"/>
</linearGradient>
</defs>
</svg>
