<svg width="27" height="28" viewBox="0 0 27 28" fill="none" xmlns="http://www.w3.org/2000/svg">
<path d="M21.6668 22C20.1868 22 19.0002 23.1867 19.0002 24.6667C19.0002 25.3739 19.2811 26.0522 19.7812 26.5523C20.2813 27.0524 20.9596 27.3334 21.6668 27.3334C22.3741 27.3334 23.0524 27.0524 23.5524 26.5523C24.0525 26.0522 24.3335 25.3739 24.3335 24.6667C24.3335 23.9594 24.0525 23.2812 23.5524 22.7811C23.0524 22.281 22.3741 22 21.6668 22ZM0.333496 0.666687V3.33335H3.00016L7.80016 13.4534L5.98683 16.72C5.78683 17.0934 5.66683 17.5334 5.66683 18C5.66683 18.7073 5.94778 19.3855 6.44788 19.8856C6.94798 20.3857 7.62625 20.6667 8.3335 20.6667H24.3335V18H8.8935C8.80509 18 8.72031 17.9649 8.65779 17.9024C8.59528 17.8399 8.56016 17.7551 8.56016 17.6667C8.56016 17.6 8.5735 17.5467 8.60016 17.5067L9.80016 15.3334H19.7335C20.7335 15.3334 21.6135 14.7734 22.0668 13.96L26.8402 5.33335C26.9335 5.12002 27.0002 4.89335 27.0002 4.66669C27.0002 4.31307 26.8597 3.97393 26.6096 3.72388C26.3596 3.47383 26.0205 3.33335 25.6668 3.33335H5.94683L4.6935 0.666687M8.3335 22C6.8535 22 5.66683 23.1867 5.66683 24.6667C5.66683 25.3739 5.94778 26.0522 6.44788 26.5523C6.94798 27.0524 7.62625 27.3334 8.3335 27.3334C9.04074 27.3334 9.71902 27.0524 10.2191 26.5523C10.7192 26.0522 11.0002 25.3739 11.0002 24.6667C11.0002 23.9594 10.7192 23.2812 10.2191 22.7811C9.71902 22.281 9.04074 22 8.3335 22Z" fill="white"/>
</svg>
